<?xml version="1.0" encoding="UTF-8"?>
<svg id="Warstwa_2" data-name="Warstwa 2" xmlns="http://www.w3.org/2000/svg" viewBox="0 0 250.61 250.61">
  <defs>
    <style>
      .cls-1 {
        stroke-width: 0px;
      }
      #Warstwa_1-2{
        fill: #ffffff;
      }
    </style>
  </defs>
  <g id="Warstwa_1-2" data-name="Warstwa 1">
    <g>
      <path class="cls-1" d="M221.86,74.8c0,24.19-19.6,43.81-43.79,43.83h-.07s-33.43.03-33.43.03l-72.04,72.04h149.33s0,31.16,0,31.16H41.39l-28.75,28.75h237.96s0-88.66,0-88.66h-108.68l14.6-14.6,21.47-.1h.51c39.87-.19,72.1-32.57,72.1-72.45V12.62s-28.75,28.75-28.75,28.75v33.43Z"/>
      <path class="cls-1" d="M28.75,28.75h31.17v149.33s72.04-72.04,72.04-72.04l.03-33.43v-.07c.02-24.19,19.64-43.79,43.83-43.79h33.43S237.99,0,237.99,0h-62.18c-39.87,0-72.25,32.22-72.44,72.1v.51s-.11,21.47-.11,21.47l-14.6,14.6V0H0s0,237.96,0,237.96l28.75-28.75V28.75Z"/>
    </g>
  </g>
</svg>