<?xml version="1.0" encoding="UTF-8"?>
<svg id="Warstwa_2" data-name="Warstwa 2" xmlns="http://www.w3.org/2000/svg" viewBox="0 0 887.34 250.61">
  <defs>
    <style>
      .cls-1 {
        stroke-width: 0px;
      }
      #Warstwa_1-2{
        fill: #ffffff;
      }
    </style>
  </defs>
  <g id="Warstwa_1-2" data-name="Warstwa 1">
    <g>
      <path class="cls-1" d="M221.86,74.8c0,24.19-19.6,43.81-43.79,43.83h-.07s-33.43.03-33.43.03l-72.04,72.04h149.33s0,31.16,0,31.16H41.39l-28.75,28.75h237.96s0-88.66,0-88.66h-108.68l14.6-14.6,21.47-.1h.51c39.87-.19,72.1-32.57,72.1-72.45V12.62s-28.75,28.75-28.75,28.75v33.43Z"/>
      <path class="cls-1" d="M28.75,28.75h31.17v149.33s72.04-72.04,72.04-72.04l.03-33.43v-.07c.02-24.19,19.64-43.79,43.83-43.79h33.43S237.99,0,237.99,0h-62.18c-39.87,0-72.25,32.22-72.44,72.1v.51s-.11,21.47-.11,21.47l-14.6,14.6V0H0s0,237.96,0,237.96l28.75-28.75V28.75Z"/>
      <path class="cls-1" d="M338.37,53.9h-18.45v134.47h82.76v-17.41h-64.31V53.9Z"/>
      <path class="cls-1" d="M497.34,92.68h-17.58v52.76c0,14.83-8.97,29.48-25,29.48-12.07,0-21.72-8.62-21.72-28.45v-53.79h-17.59v60c0,27.41,15.52,38.62,34.48,38.62,13.96,0,24.31-6.04,30.51-17.76h.35c-.17,3.97.52,8.62,2.07,14.83h17.58c-1.9-7.41-3.1-13.96-3.1-29.82v-65.86Z"/>
      <path class="cls-1" d="M636.99,89.93c-11.55,0-23.79,5.17-32.93,20.69h-.35c-5-14.83-17.93-20.69-30.17-20.69s-24.14,6.03-31.2,19.14h-.35v-16.38h-17.24v95.69h17.58v-51.38c0-17.58,10.52-30.51,25.52-30.51,13.28,0,21.21,10.52,21.21,29.48v52.41h17.58v-51.38c0-17.58,10.52-30.51,25.35-30.51,13.45,0,21.38,10.69,21.38,29.48v52.41h17.59v-60.17c0-27.07-17.42-38.27-33.97-38.27Z"/>
      <path class="cls-1" d="M738.72,175.61c-16.55,0-29.48-11.55-30.69-30.69h74.48v-5.69c0-36.72-23.96-49.31-44.83-49.31-27.59,0-47.41,21.38-47.41,51.03s20.69,50.34,48.44,50.34c21.21,0,37.93-11.72,44.66-29.48l-16.21-6.38c-4.83,11.9-14.83,20.17-28.45,20.17ZM737.51,105.1c12.76,0,26.03,7.07,27.07,26.89h-55.69c2.58-15.86,13.1-26.89,28.62-26.89Z"/>
      <path class="cls-1" d="M853.2,89.93c-12.93,0-24.65,5.86-31.9,19.14h-.35v-16.38h-17.24v95.69h17.58v-51.38c0-17.58,10.34-30.51,26.21-30.51,14.31,0,22.24,10.86,22.24,29.48v52.41h17.59v-60.17c0-27.59-16.9-38.27-34.14-38.27Z"/>
    </g>
  </g>
</svg>